<?xml version="1.0" ?>
<!-- Uploaded to: SVG Repo, www.svgrepo.com, Generator: SVG Repo Mixer Tools -->
<svg width="800px" height="800px" viewBox="0 0 64 64" xmlns="http://www.w3.org/2000/svg">
<g id="flat">
<circle cx="57" cy="20" r="4" style="fill:#dd4a43"/>
<path d="M18,46H12a3,3,0,0,1-3-3V33l9,6Z" style="fill:#feb784"/>
<path d="M47,46h5a3,3,0,0,0,3-3V33l-8,5Z" style="fill:#feb784"/>
<path d="M15,32H49a0,0,0,0,1,0,0V44A17,17,0,0,1,32,61h0A17,17,0,0,1,15,44V32A0,0,0,0,1,15,32Z" style="fill:#fec9a3"/>
<path d="M41,32V44A16.992,16.992,0,0,1,28,60.507,16.942,16.942,0,0,0,49,44V32Z" style="fill:#fec093"/>
<path d="M36.013,3h0A21.013,21.013,0,0,0,15,24.013V24H49V19h8l-2.192-4.384A21.014,21.014,0,0,0,36.013,3Z" style="fill:#7ea82d"/>
<path d="M28.489,9.882l-.945-1.764A17.935,17.935,0,0,1,30.705,6.8l.59,1.91A15.836,15.836,0,0,0,28.489,9.882Z" style="fill:#97c936"/>
<path d="M21.881,16.488l-1.763-.943A18.218,18.218,0,0,1,25.41,9.46l1.179,1.615A16.222,16.222,0,0,0,21.881,16.488Z" style="fill:#97c936"/>
<rect height="8" rx="2" ry="2" style="fill:#dd4a43" width="42" x="11" y="24"/>
<path d="M32,51a4,4,0,0,1-4-4h2a2,2,0,0,0,4,0h2A4,4,0,0,1,32,51Z" style="fill:#7a4321"/>
<circle cx="22" cy="47" r="3" style="fill:#dd4a43"/>
<circle cx="42" cy="47" r="3" style="fill:#dd4a43"/>
<circle cx="22.5" cy="38.5" r="2.5" style="fill:#7a4321"/>
<circle cx="41.5" cy="38.5" r="2.5" style="fill:#7a4321"/>
<rect height="3" style="fill:#fec093" width="34" x="15" y="32"/>
<path d="M57,19l-2.192-4.384a20.992,20.992,0,0,0-5.79-7.095A20.957,20.957,0,0,0,41,24h8V19Z" style="fill:#729c22"/>
<rect height="5" style="fill:#d13e37" width="2" x="34" y="27"/>
<rect height="5" style="fill:#d13e37" width="2" x="28" y="27"/>
<rect height="5" style="fill:#d13e37" width="2" x="22" y="27"/>
<rect height="5" style="fill:#d13e37" width="2" x="16" y="27"/>
<rect height="5" style="fill:#d13e37" width="2" x="46" y="27"/>
<rect height="5" style="fill:#d13e37" width="2" x="40" y="27"/>
</g>
</svg>