<?xml version="1.0" encoding="iso-8859-1"?>
<!-- Uploaded to: SVG Repo, www.svgrepo.com, Generator: SVG Repo Mixer Tools -->
<svg height="800px" width="800px" version="1.1" id="Layer_1" xmlns="http://www.w3.org/2000/svg" xmlns:xlink="http://www.w3.org/1999/xlink" 
	 viewBox="0 0 512 512" xml:space="preserve">
<path style="fill:#CAE9F7;" d="M255.999,130.807c-4.662,0-8.442-3.778-8.442-8.442V50.688c0-4.662,3.78-8.442,8.442-8.442
	s8.442,3.78,8.442,8.442v71.678C264.441,127.028,260.661,130.807,255.999,130.807z"/>
<path style="fill:#90C8EC;" d="M95.566,256.121h320.869c-13.836-76.063-80.376-133.755-160.435-133.755
	C175.942,122.366,109.403,180.058,95.566,256.121z"/>
<path style="fill:#FF4D30;" d="M288.788,35.057c0,18.108-14.681,32.787-32.789,32.787s-32.789-14.679-32.789-32.787
	c0-18.111,14.681-32.79,32.789-32.79S288.788,16.945,288.788,35.057z"/>
<path style="fill:#3A5D74;" d="M338.6,256.121v-33.166c0-12.536-10.163-22.7-22.698-22.7H196.097
	c-12.535,0-22.698,10.164-22.698,22.7v33.166H338.6z"/>
<g>
	<path style="opacity:0.1;fill:#231F20;enable-background:new    ;" d="M265.285,122.636c-3.075-0.172-6.168-0.27-9.286-0.27
		c-80.057,0-146.597,57.693-160.433,133.755h18.572C127.436,183.02,189.415,126.896,265.285,122.636z"/>
	<path style="opacity:0.1;fill:#231F20;enable-background:new    ;" d="M241.784,35.057c0-14.884,9.917-27.442,23.503-31.447
		c-2.944-0.868-6.06-1.342-9.286-1.342c-18.108,0-32.789,14.678-32.789,32.79c0,18.108,14.681,32.787,32.789,32.787
		c3.226,0,6.341-0.474,9.286-1.342C251.701,62.495,241.784,49.937,241.784,35.057z"/>
	<path style="opacity:0.1;fill:#231F20;enable-background:new    ;" d="M214.669,200.255h-18.572
		c-12.535,0-22.698,10.164-22.698,22.7v33.166h18.572v-33.166C191.971,210.419,202.134,200.255,214.669,200.255z"/>
</g>
<g>
	<path style="fill:#578CAD;" d="M92.683,509.733c-1.28,0-2.578-0.293-3.798-0.908c-4.161-2.1-5.833-7.178-3.731-11.339
		l44.462-88.094c2.1-4.162,7.178-5.834,11.34-3.732c4.161,2.1,5.833,7.178,3.732,11.339l-44.463,88.094
		C98.74,508.035,95.768,509.733,92.683,509.733z"/>
	<path style="fill:#578CAD;" d="M419.317,509.733c-3.085,0-6.058-1.698-7.542-4.641l-44.462-88.094
		c-2.1-4.161-0.43-9.239,3.731-11.339c4.163-2.099,9.24-0.429,11.34,3.732l44.462,88.094c2.1,4.161,0.43,9.239-3.731,11.339
		C421.895,509.441,420.596,509.733,419.317,509.733z"/>
	<path style="fill:#578CAD;" d="M256.002,509.731c-4.662,0-8.442-3.779-8.442-8.442v-88.094c0-4.663,3.78-8.442,8.442-8.442
		s8.442,3.778,8.442,8.442v88.094C264.443,505.952,260.664,509.731,256.002,509.731z"/>
</g>
<path style="fill:#3A5D74;" d="M130.547,385.271h-15.789c-12.188,0-22.069,9.881-22.069,22.069l0,0
	c0,12.189,9.881,22.069,22.069,22.069h282.484c12.19,0,22.069-9.879,22.069-22.069l0,0c0-12.188-9.879-22.069-22.069-22.069H130.547
	"/>
<path style="opacity:0.1;fill:#231F20;enable-background:new    ;" d="M111.261,407.339c0-12.188,9.881-22.069,22.069-22.069h-2.782
	h-15.789c-12.188,0-22.069,9.881-22.069,22.069c0,12.189,9.881,22.069,22.069,22.069h18.572
	C121.142,429.408,111.261,419.528,111.261,407.339z"/>
<path style="fill:#578CAD;" d="M338.202,386.396H489.3c12.538,0,22.7-10.162,22.7-22.699v-15.133c0-12.539-10.163-22.7-22.7-22.7
	h-19.07c0-0.045,0.007-0.09,0.007-0.136V311c0-31.552-25.578-57.13-57.129-57.13H98.892c-31.55,0-57.129,25.578-57.129,57.13v14.728
	c0,0.046,0.007,0.091,0.007,0.136H22.7c-12.538,0-22.7,10.161-22.7,22.7v15.133c0,12.538,10.163,22.699,22.7,22.699H338.202"/>
<g style="opacity:0.1;">
	<path style="fill:#231F20;" d="M98.892,253.87c-31.55,0-57.129,25.578-57.129,57.13v14.728c0,0.046,0.007,0.091,0.007,0.136h9.17
		c2.496-0.115,9.395-1.221,9.395-9.707V311c0-31.552,25.578-57.13,57.129-57.13L98.892,253.87L98.892,253.87z"/>
	<path style="fill:#231F20;" d="M18.572,363.697v-15.133c0-12.539,10.163-22.7,22.7-22.7H22.7c-12.538,0-22.7,10.161-22.7,22.7
		v15.133c0,12.538,10.163,22.699,22.7,22.699h18.572C28.734,386.396,18.572,376.235,18.572,363.697z"/>
</g>
<path style="fill:#FF9737;" d="M422.463,328.574H89.537c-4.662,0-8.442-3.778-8.442-8.442s3.78-8.442,8.442-8.442h332.927
	c4.662,0,8.442,3.778,8.442,8.442S427.124,328.574,422.463,328.574z"/>
</svg>