<?xml version="1.0" encoding="iso-8859-1"?>
<!-- Uploaded to: SVG Repo, www.svgrepo.com, Generator: SVG Repo Mixer Tools -->
<svg version="1.1" id="Layer_1" xmlns="http://www.w3.org/2000/svg" xmlns:xlink="http://www.w3.org/1999/xlink" 
	 viewBox="0 0 512 512" xml:space="preserve">
<path style="fill:#78B9EB;" d="M437.797,411.826H267.13v-44.522h170.667c16.366,0,29.681-13.315,29.681-29.681
	s-13.315-29.681-29.681-29.681h-14.841c-40.915,0-74.203-33.287-74.203-74.203s33.287-74.203,74.203-74.203h81.623v44.522h-81.623
	c-16.366,0-29.681,13.315-29.681,29.681s13.315,29.681,29.681,29.681h14.841c40.915,0,74.203,33.287,74.203,74.203
	S478.713,411.826,437.797,411.826z"/>
<polygon style="fill:#3C5D76;" points="148.406,508.29 74.203,508.29 74.203,463.768 148.406,448.928 "/>
<polygon style="fill:#1E2E3B;" points="281.971,508.29 207.768,508.29 207.768,448.928 281.971,463.768 "/>
<path style="fill:#93C7EF;" d="M356.174,314.27l-92.81-46.163c-12.129-8.533-25.596-15.29-40.021-19.906l-8.673-4.314l-0.807,1.624
	c-11.458-2.838-23.439-4.351-35.775-4.351s-24.316,1.514-35.775,4.351l-0.807-1.624l-8.673,4.314
	c-14.425,4.615-27.891,11.372-40.021,19.906L0,314.27v66.299l74.203-36.907v120.106h207.768V343.66l74.203,36.907V314.27z"/>
<path style="fill:#5A8BB0;" d="M356.174,314.27l-92.81-46.163c-12.129-8.533-25.596-15.29-40.021-19.906l-8.673-4.314l-0.807,1.624
	c-11.458-2.838-23.439-4.351-35.775-4.351c0,75.687,0,222.609,0,222.609h103.884V343.66l74.203,36.907V314.27H356.174z"/>
<circle style="fill:#BFE4F8;" cx="178.087" cy="152.116" r="148.406"/>
<path style="fill:#93C7EF;" d="M178.087,3.71c81.963,0,148.406,66.443,148.406,148.406S260.05,300.522,178.087,300.522"/>
<path style="fill:#3C5D76;" d="M263.264,92.754H92.908c-11.772,16.841-18.705,37.302-18.705,59.362s6.934,42.521,18.705,59.362
	h170.357c11.773-16.841,18.707-37.302,18.707-59.362S275.038,109.595,263.264,92.754z"/>
<path style="fill:#1E2E3B;" d="M263.264,92.754h-85.178v118.725h85.178c11.773-16.841,18.707-37.302,18.707-59.362
	S275.038,109.595,263.264,92.754z"/>
<rect x="74.203" y="367.304" style="fill:#3C5D76;" width="207.768" height="44.522"/>
<rect x="178.087" y="367.304" style="fill:#1E2E3B;" width="103.884" height="44.522"/>
</svg>