<?xml version="1.0" ?>
<!-- Uploaded to: SVG Repo, www.svgrepo.com, Generator: SVG Repo Mixer Tools -->
<svg width="800px" height="800px" viewBox="0 0 64 64" xmlns="http://www.w3.org/2000/svg">
<g id="flat">
<path d="M52,15,36.3,18.489A14.432,14.432,0,0,0,27,39.906L54,40V17Z" style="fill:#dd4a43"/>
<path d="M26.47,38.913c.165.338.339.671.53.993L54,40V17l-.7-.7C49.762,29.466,33.646,36.424,26.47,38.913Z" style="fill:#d13e37"/>
<polygon points="54 10 59 15 54 17 52 15 54 10" style="fill:#dd4a43"/>
<path d="M55,53V46H53v7H44V46H42v7H32V46H30v7H21V46H19v7H10a6,6,0,0,1-.858-11.939l-.284-1.98A8,8,0,0,0,10,55H62V53Z" style="fill:#d1d1cf"/>
<rect height="3" style="fill:#bdbdbb" width="2" x="19" y="46"/>
<rect height="3" style="fill:#bdbdbb" width="2" x="30" y="46"/>
<rect height="3" style="fill:#bdbdbb" width="2" x="42" y="46"/>
<rect height="3" style="fill:#bdbdbb" width="2" x="53" y="46"/>
<path d="M51,47H21a8,8,0,0,1-8-8V26h0a5,5,0,0,1,5,5v7a2,2,0,0,0,2,2h6.491a2,2,0,0,0,1.923-1.451L31.171,28.9A4,4,0,0,1,35.017,26H61l-1.664,2.5A2,2,0,0,0,59,29.606V39A8,8,0,0,1,51,47Z" style="fill:#fdb62f"/>
<path d="M55.631,26C51.988,45.193,21.955,44.316,14.617,43.809A7.98,7.98,0,0,0,21,47H51a8,8,0,0,0,8-8V29.606a2,2,0,0,1,.336-1.11L61,26Z" style="fill:#fdab26"/>
<rect height="2" style="fill:#fd9a30" width="2" x="54" y="29"/>
<rect height="2" style="fill:#fd9a30" width="2" x="50" y="29"/>
<rect height="2" style="fill:#fd9a30" width="2" x="46" y="29"/>
<rect height="2" style="fill:#fd9a30" width="2" x="42" y="29"/>
<rect height="2" style="fill:#fd9a30" width="2" x="38" y="29"/>
<rect height="2" style="fill:#fd9a30" width="2" x="34" y="29"/>
<path d="M58.2,20.773a4.324,4.324,0,0,1-3.141-1.3l-1.764-1.765,1.414-1.414,1.764,1.764c.344.344,1.393,1.391,4.082.048l.894,1.79A7.3,7.3,0,0,1,58.2,20.773Z" style="fill:#7a4321"/>
<path d="M50,44V42a4,4,0,0,0,4-4h2A6.006,6.006,0,0,1,50,44Z" style="fill:#fd9a30"/>
<path d="M59.8,23.98A8.836,8.836,0,0,1,53.1,17.51l-2.1-2.1A1,1,0,0,1,51,14h0a1,1,0,0,1,1.414,0l2.293,2.293a1,1,0,0,1,.273.511A6.928,6.928,0,0,0,60.2,22.02Z" style="fill:#7a4321"/>
</g>
</svg>